<?xml version="1.0" encoding="utf-8"?>
<!-- Generator: Adobe Illustrator 19.2.1, SVG Export Plug-In . SVG Version: 6.00 Build 0)  -->
<svg version="1.1" id="layer" xmlns="http://www.w3.org/2000/svg" xmlns:xlink="http://www.w3.org/1999/xlink" x="0px" y="0px"
	 viewBox="0 0 652 652" style="enable-background:new 0 0 652 652;" xml:space="preserve">
<style type="text/css">
	.st0{fill:#008CCE;}
	.st1{filter:url(#Adobe_OpacityMaskFilter);}
	.st2{fill:#FFFFFF;}
	.st3{mask:url(#mask-2_1_);fill:#FEC30C;}
</style>
<path class="st0" d="M582.7,297.9H563c-1.5,0-2.6-1.3-2.6-2.7v-15.5c0-1.4,1.1-2.7,2.6-2.7h61.1c1.5,0,2.6,1.3,2.6,2.7v15.5
	c0,1.4-1.1,2.7-2.6,2.7h-19.7v76c0,1.4-1.2,2.7-2.6,2.7h-16.5c-1.4,0-2.6-1.3-2.6-2.7V297.9 M463.1,278.1c0-1.4,1.2-2.5,2.6-2.5h3.4
	l54.7,53.9h0.1v-49.8c0-1.4,1.1-2.7,2.6-2.7H543c1.4,0,2.6,1.3,2.6,2.7v94.5c0,1.4-1.2,2.5-2.6,2.5h-2.2c-0.4,0-1.5-0.4-1.8-0.7
	l-54.2-55.7h-0.1v52.4c0,1.4-1.1,2.7-2.6,2.7h-16.3c-1.4,0-2.6-1.3-2.6-2.7L463.1,278.1 M404.2,342.1c-3.5,0-6.9-0.7-10-1.9
	l9.8-21.9h0.1l10,22.1C411.1,341.5,407.7,342.1,404.2,342.1 M451,371.5l-43.8-94.4c-0.4-0.8-1.4-1.5-2.4-1.5h-1.4
	c-1,0-2,0.7-2.4,1.5l-43.8,94.4c-0.8,1.8,0.3,3.7,2.4,3.7H375c2.8,0,4.3-1.7,5-3.4l5.6-12.5c5.7,2.4,12,3.7,18.5,3.7
	c6.6,0,12.9-1.2,18.6-3.4l5.5,12.1c1.3,2.7,2.4,3.5,4.9,3.5h15.5C450.7,375.2,451.8,373.3,451,371.5 M314.7,328.7l-31.1-47.5
	c-1.1-1.8,0-4.1,2.3-4.1h18.3c1.1,0,1.8,0.7,2.3,1.3l19.5,29.2l19.5-29.2c0.4-0.6,1-1.3,2.2-1.3H366c2.3,0,3.4,2.3,2.3,4.1
	l-31.5,47.4v45.4c0,1.4-1.3,2.7-2.7,2.7h-16.7c-1.5,0-2.7-1.3-2.7-2.7V328.7 M241.7,277c11.7,0,24.5,4.9,33.9,13
	c1.3,1,1.4,2.6,0.3,3.7l-11,11.7c-1.1,1-2.6,1-3.8,0.1c-5.3-4.9-11.4-6.7-18.2-6.7c-15.2,0-27.4,12.8-27.4,28
	c0,15.1,12.4,27.6,27.5,27.6c4,0,8.2-0.6,12.4-2.2v-8h-8.8c-1.5,0-2.6-1.1-2.6-2.5v-13.7c0-1.5,1.1-2.6,2.6-2.6h28
	c1.4,0,2.5,1.2,2.5,2.6l0.1,37.3c0,0.7-0.6,1.8-1.1,2.2c0,0-14.3,9-34.5,9c-27.7,0-49.9-21.9-49.9-49.7
	C191.8,299.2,214.1,277,241.7,277"/>
<defs>
	<filter id="Adobe_OpacityMaskFilter" filterUnits="userSpaceOnUse" x="26.7" y="261.4" width="130.7" height="129">
		<feColorMatrix  type="matrix" values="1 0 0 0 0  0 1 0 0 0  0 0 1 0 0  0 0 0 1 0"/>
	</filter>
</defs>
<mask maskUnits="userSpaceOnUse" x="26.7" y="261.4" width="130.7" height="129" id="mask-2_1_">
	<g class="st1">
		<polygon id="path-1_1_" class="st2" points="26.7,261.4 157.4,261.4 157.4,390.5 26.7,390.5 		"/>
	</g>
</mask>
<path id="Fill-11" class="st3" d="M143.5,318.5v9.6c-0.6,11.8-6.1,23.7-15.3,32.8c-9.2,9.1-21.3,14.7-33.3,15.2
	c-2,0.1-3.9,0.1-5.8-0.1c0,0,0,0,0,0c-1.9-0.1-3.8-0.3-5.6-0.7c0,0-0.1,0-0.1,0c-1.8-0.3-3.6-0.7-5.3-1.2c-0.1,0-0.2,0-0.3-0.1
	c-0.8-0.2-1.7-0.5-2.5-0.8c-0.1,0-0.2-0.1-0.3-0.1c-0.8-0.3-1.5-0.6-2.3-0.9c-0.1,0-0.2-0.1-0.3-0.1c-0.8-0.3-1.5-0.7-2.3-1
	c-0.2-0.1-0.3-0.2-0.5-0.2c-0.8-0.4-1.5-0.8-2.3-1.2c-1.7-0.9-3.7-1.2-5.5-0.7l-13.9,3.7l-4.3,1.1l4.8-17.7c0.5-2,0.3-4.1-0.7-5.8
	c-0.4-0.8-0.8-1.5-1.2-2.3c-0.1-0.2-0.2-0.4-0.3-0.7c-0.3-0.6-0.6-1.3-0.9-1.9c-0.1-0.2-0.1-0.3-0.2-0.5c-0.3-0.8-0.6-1.5-0.9-2.3
	c-0.1-0.3-0.2-0.6-0.3-0.8c-0.2-0.5-0.4-1.1-0.5-1.6c-0.1-0.3-0.2-0.6-0.3-0.9c-0.2-0.7-0.4-1.4-0.6-2.1c-0.1-0.4-0.2-0.8-0.3-1.2
	c-0.1-0.4-0.2-0.8-0.2-1.2c-0.1-0.5-0.2-0.9-0.2-1.4c0-0.3-0.1-0.6-0.1-0.9c-0.1-0.9-0.2-1.9-0.3-2.8c0-0.2,0-0.4-0.1-0.6
	c0-0.6-0.1-1.2-0.1-1.7c0-0.1,0-0.2,0-0.3c-0.1-1.9,0-3.9,0.2-5.8c0,0,0-0.1,0-0.1c0.1-0.7,0.1-1.3,0.2-2c0,0,0-0.1,0-0.1
	c0.6-4.8,1.8-9.5,3.7-14.3c4.7-11.8,14.3-21.2,26.3-25.8c15.9-6.1,32.2-5.1,45.9,2.5l-11.3,11.1c-4.4-1.8-9.1-2.7-13.9-2.7
	c-2.2,0-4.3,0.2-6.4,0.6c0,0,0,0,0,0c-0.5,0.1-0.9,0.2-1.4,0.3c-0.2,0-0.4,0.1-0.7,0.1c-0.4,0.1-0.8,0.2-1.2,0.3
	c-0.3,0.1-0.5,0.1-0.8,0.2c-0.4,0.1-0.8,0.2-1.1,0.4c-0.3,0.1-0.6,0.2-0.8,0.3c-0.4,0.1-0.7,0.3-1.1,0.4c-0.3,0.1-0.6,0.2-0.9,0.4
	c-0.3,0.2-0.7,0.3-1,0.5c-0.3,0.1-0.6,0.3-0.9,0.4c-0.3,0.2-0.6,0.3-1,0.5c-0.3,0.2-0.6,0.3-0.9,0.5c-0.3,0.2-0.6,0.4-0.9,0.5
	c-0.3,0.2-0.6,0.4-0.9,0.6c-0.3,0.2-0.6,0.4-0.9,0.6c-0.3,0.2-0.6,0.4-0.9,0.6c-0.3,0.2-0.5,0.4-0.8,0.6c-0.3,0.2-0.6,0.5-0.9,0.7
	c-0.2,0.2-0.5,0.4-0.7,0.6c-0.3,0.3-0.6,0.5-0.9,0.8c-0.2,0.2-0.5,0.4-0.7,0.6c-0.3,0.3-0.6,0.6-0.9,0.9c-0.2,0.2-0.4,0.4-0.6,0.6
	c-0.3,0.3-0.6,0.7-0.9,1.1c-0.2,0.2-0.3,0.4-0.5,0.5c-0.4,0.6-0.9,1.1-1.3,1.7c-0.4,0.6-0.8,1.2-1.2,1.9c-0.2,0.3-0.3,0.5-0.5,0.8
	c-0.2,0.4-0.4,0.7-0.6,1.1c-0.2,0.4-0.4,0.7-0.5,1.1c-0.1,0.3-0.3,0.6-0.4,0.9c-0.2,0.4-0.4,0.9-0.5,1.3c-0.1,0.2-0.2,0.5-0.3,0.7
	c-0.2,0.5-0.4,1-0.5,1.5c-0.1,0.2-0.1,0.4-0.2,0.5c-0.2,0.5-0.3,1.1-0.5,1.7c0,0.1-0.1,0.3-0.1,0.4c-0.1,0.6-0.3,1.2-0.4,1.8
	c0,0.1,0,0.2-0.1,0.3c-0.1,0.6-0.2,1.3-0.3,1.9c0,0.1,0,0.1,0,0.2c-0.1,0.7-0.1,1.4-0.2,2.1c0,0,0,0,0,0.1c0,0.7-0.1,1.4-0.1,2.1
	c0,4.3,0.8,8.7,2.4,13v0c0.1,0.2,0.1,0.3,0.2,0.5c2.9,7.6,8.5,13.9,15.7,17.7c0-0.1,0-0.1,0.1-0.2c2.8,1.5,5.7,2.7,8.9,3.5
	c1.4,0.3,2.7,0.6,4.1,0.8c0,0,0,0,0,0c0.7,0.1,1.4,0.2,2.1,0.2c0.1,0,0.1,0,0.2,0c0.6,0,1.2,0.1,1.8,0.1c0.1,0,0.3,0,0.4,0
	c0.5,0,0.9,0,1.4,0c1.4,0,2.8-0.2,4.2-0.4l0,0c3.5-0.5,6.8-1.6,9.9-3c0.2-0.1,0.3-0.2,0.5-0.2c0.4-0.2,0.7-0.4,1.1-0.5
	c0.4-0.2,0.8-0.4,1.1-0.6c0.2-0.1,0.3-0.2,0.5-0.3c0.6-0.4,1.2-0.7,1.8-1.2c9.7-6.6,15.5-17.6,15.5-29.4v-3.3
	c-0.1-1.2-0.3-2.4-0.5-3.6H99.5l-14,13.8h27.5c-1.5,4.5-4.4,8.4-8.4,11.1c-6.1,4.2-13.6,4.9-21.1,2.2c-1.2-0.4-2.3-1-3.4-1.6
	c-0.9-0.6-1.8-1.2-2.7-1.9c0,0,0,0,0,0c-0.8-0.7-1.6-1.5-2.3-2.3c0,0,0,0-0.1-0.1c-0.3-0.4-0.6-0.8-0.9-1.2c0-0.1-0.1-0.1-0.1-0.2
	c-0.3-0.4-0.5-0.8-0.8-1.2c0,0,0-0.1-0.1-0.1c-0.2-0.4-0.5-0.9-0.7-1.3c0-0.1-0.1-0.2-0.1-0.3c-0.2-0.4-0.4-0.9-0.6-1.4
	c-2.8-7.3-2-15,2.3-21c4.1-5.9,10.9-9.4,18.2-9.4c4.1,0,8.1,1.1,11.6,3.2l4.7,2.9l29.9-29.5c-11-11-26-18.1-42.7-19
	c-0.1,0-0.2,0-0.3,0c-0.4,0-0.8,0-1.2,0c-0.3,0-0.7,0-1,0c-0.3,0-0.5,0-0.8,0c-1.3,0-2.7,0-4,0.1c-0.1,0-0.2,0-0.3,0
	c-0.6,0-1.1,0.1-1.7,0.1c-0.2,0-0.4,0-0.6,0c-0.4,0-0.8,0.1-1.2,0.1c-26.7,3-48.5,22-55.4,47c-0.9,3.3-1.4,6.6-1.8,9.9
	c0,0,0,0.1,0,0.1c0,0.4-0.1,0.9-0.1,1.3c0,0.2,0,0.5-0.1,0.7c-0.1,0.9-0.1,1.8-0.1,2.7c0,0.2,0,0.3,0,0.5c0,0.7,0,1.5,0,2.2
	c0,0.3,0,0.6,0,0.9c0,0.6,0,1.2,0.1,1.9c0,0.3,0,0.6,0,0.9c0,0.8,0.1,1.5,0.2,2.3c0,0.1,0,0.3,0,0.4c0.1,0.9,0.2,1.8,0.3,2.6
	c0,0.3,0.1,0.5,0.1,0.8c0.1,0.6,0.2,1.3,0.3,1.9c0.1,0.3,0.1,0.6,0.2,0.9c0.1,0.6,0.3,1.3,0.4,1.9c0.1,0.2,0.1,0.5,0.2,0.7
	c0.2,0.9,0.5,1.7,0.7,2.5c0,0.2,0.1,0.3,0.1,0.5c0.2,0.7,0.4,1.4,0.7,2.1c0.1,0.3,0.2,0.5,0.3,0.8c0.2,0.6,0.4,1.2,0.7,1.8
	c0.1,0.3,0.2,0.5,0.3,0.8c0.3,0.7,0.6,1.4,0.9,2.1c0.1,0.1,0.1,0.3,0.2,0.4c0.3,0.7,0.7,1.5,1,2.2c0.1,0.3,0.2,0.6,0.1,0.9L27,381.7
	c-0.6,2.4,0,4.9,1.8,6.7c1.8,1.8,4.4,2.5,6.9,1.8l26.7-7.1c0.3-0.1,0.7-0.1,1,0.1c0.2,0.1,0.4,0.2,0.7,0.3c0.2,0.1,0.5,0.2,0.7,0.3
	c0.3,0.1,0.6,0.3,0.9,0.4c0.2,0.1,0.5,0.2,0.7,0.3c0.3,0.2,0.7,0.3,1,0.4c0.2,0.1,0.4,0.2,0.6,0.3c0.4,0.2,0.8,0.3,1.2,0.5
	c0.2,0.1,0.3,0.1,0.5,0.2c0.6,0.2,1.1,0.4,1.7,0.6c0.1,0,0.1,0,0.2,0.1c0.5,0.2,1,0.3,1.5,0.5c0.2,0.1,0.4,0.1,0.5,0.2
	c0.4,0.1,0.8,0.2,1.2,0.3c0.2,0.1,0.4,0.1,0.6,0.2c0.4,0.1,0.7,0.2,1.1,0.3c0.2,0.1,0.5,0.1,0.7,0.2c0.3,0.1,0.7,0.2,1,0.2
	c0.2,0.1,0.5,0.1,0.7,0.2c0.3,0.1,0.7,0.1,1,0.2c0.2,0,0.5,0.1,0.7,0.1c0.3,0.1,0.7,0.1,1,0.2l0.7,0.1c0.3,0.1,0.7,0.1,1,0.2
	c0.3,0,0.5,0.1,0.7,0.1c0.3,0,0.7,0.1,1,0.1c0.2,0,0.5,0.1,0.7,0.1c0.4,0,0.7,0.1,1,0.1c0.3,0,0.5,0,0.8,0.1c0.3,0,0.7,0,1.1,0.1
	c0.2,0,0.5,0,0.7,0c0.1,0,0.2,0,0.4,0c0,0,0,0,0.1,0c0.4,0,0.8,0,1.2,0c0.2,0,0.3,0,0.5,0c0.4,0,0.9,0,1.3,0c0.3,0,0.6,0,0.9,0
	c0.2,0,0.4,0,0.7,0c0.6,0,1.1,0,1.7-0.1c0.6,0,1.2-0.1,1.7-0.1c0.3,0,0.6-0.1,0.9-0.1c14.5-1.5,28.3-8.1,39.3-19
	c8.4-8.4,14.3-18.4,17.3-29.1c1.3-5.1,2-10.4,2-15.8c0-2.4-0.1-4.8-0.4-7.2H143.5z"/>
</svg>
